# xmcd
#
# Track frame offsets:
#	150
#	23307
#	43380
#	65562
#	80925
#	94787
#	112837
#	129862
#	143710
#	157880
#	181012
#	196962
#	218012
#	234212
#	280470
#
# Disc length: 4041 seconds
#
# Revision: 3
# Processed by: cddbd v1.4PL0 Copyright (c) Steve Scherf et al.
# Submitted via: EasyCDDAExtractor 4.6.9.1
#
DISCID=c20fc70f
DTITLE=Soundtrack - Batman and Robin
DYEAR=1997
DGENRE=Soundtrack
TTITLE0=Smashimg Pumpkins - The End Is The Beginning Is The End
TTITLE1=Bone Thugs-N-Harmony - Look Into My Eyes
TTITLE2=R.Kelly - Gotham City
TTITLE3=Arkarna - House On Fire
TTITLE4=REM - Revolution
TTITLE5=Jewel - Foolish Games
TTITLE6=Goo Goo Dolls - Lazy Eye
TTITLE7=Lauren Christy - Breed
TTITLE8=Soul Coughing - The Bug
TTITLE9=Moloko - Fun For Me
TTITLE10=Me'shell Ndegeocello - Poison Ivy
TTITLE11=Eric Bent - True To Myself
TTITLE12=Elliot Goldenthal - A Batman Overture
TTITLE13=Underworld - Moaner
TTITLE14=Smashing Pumpkins - The Beginning Is The End Is The Beginning
EXTD=
EXTT0=
EXTT1=
EXTT2=
EXTT3=
EXTT4=
EXTT5=
EXTT6=
EXTT7=
EXTT8=
EXTT9=
EXTT10=
EXTT11=
EXTT12=
EXTT13=
EXTT14=
PLAYORDER=
